<svg xmlns="http://www.w3.org/2000/svg" xmlns:xlink="http://www.w3.org/1999/xlink" viewBox="0 0 120 120"><defs><style>.a{fill:none;}.b{clip-path:url(#a);}.c{fill:#fff;}.d{fill:#f48120;fill-rule:evenodd;}.e{fill:#fcfdff;}</style><clipPath id="a"><rect class="a" width="120" height="120"/></clipPath></defs><title>djctq-14</title><g class="b"><path class="c" d="M10.88,0H109a10.87,10.87,0,0,1,10.87,10.87V109A10.87,10.87,0,0,1,109,119.89H10.87A10.87,10.87,0,0,1,0,109V10.88A10.88,10.88,0,0,1,10.88,0Z"/><path class="d" d="M108.51,3.09H11.78a8.69,8.69,0,0,0-8.69,8.7v96.72a8.69,8.69,0,0,0,8.69,8.7h96.73a8.69,8.69,0,0,0,8.7-8.7V11.79A8.69,8.69,0,0,0,108.51,3.09Z"/><path class="e" d="M39.89,32.12h9V85.41H38.62V45.79a16.31,16.31,0,0,1-6.35,4.07V40.29A19.68,19.68,0,0,0,37,36.67,14.7,14.7,0,0,0,39.89,32.12Z"/><path class="e" d="M72.12,32.12h14.6V65.77h6.43v8H86.72V85.41H76.6V73.72H62.15V64.61Zm4.74,7.76L70,65.77h6.91l.6-25.89Z"/></g></svg>